<svg width="1024" height="500" viewBox="0 0 1024 500" fill="none" xmlns="http://www.w3.org/2000/svg">
  <defs>
    <linearGradient id="bg" x1="96" y1="60" x2="946" y2="458" gradientUnits="userSpaceOnUse">
      <stop stop-color="#F4FBF7"/>
      <stop offset="0.55" stop-color="#E8F5EE"/>
      <stop offset="1" stop-color="#D6F1E2"/>
    </linearGradient>
    <linearGradient id="panel" x1="678" y1="102" x2="918" y2="384" gradientUnits="userSpaceOnUse">
      <stop stop-color="#0E7A58"/>
      <stop offset="1" stop-color="#38B48B"/>
    </linearGradient>
    <filter id="shadow" x="0" y="0" width="1024" height="500" filterUnits="userSpaceOnUse" color-interpolation-filters="sRGB">
      <feDropShadow dx="0" dy="24" stdDeviation="28" flood-color="#0A513A" flood-opacity="0.14"/>
    </filter>
  </defs>

  <rect width="1024" height="500" rx="36" fill="url(#bg)"/>
  <circle cx="123" cy="91" r="92" fill="#BFEFD2" fill-opacity="0.48"/>
  <circle cx="959" cy="448" r="118" fill="#B2E9C9" fill-opacity="0.4"/>
  <path d="M1024 329C928 271 843 270 729 332C607 398 493 396 390 340C282 281 189 281 96 330V500H1024V329Z" fill="#CDEEDB" fill-opacity="0.82"/>

  <g filter="url(#shadow)">
    <rect x="574" y="74" width="350" height="352" rx="34" fill="url(#panel)"/>
    <rect x="601" y="102" width="296" height="298" rx="28" fill="#F9FFFB"/>
    <image x="628" y="129" width="242" height="242" href="../../Assets.xcassets/AppIcon.appiconset/AppIcon-1024.png" preserveAspectRatio="xMidYMid slice"/>
  </g>

  <text x="84" y="144" fill="#0F2D22" font-size="66" font-weight="800" font-family="Helvetica, Arial, sans-serif">Sigarasizim</text>
  <text x="84" y="196" fill="#2D5B49" font-size="28" font-weight="500" font-family="Helvetica, Arial, sans-serif">Smoke-free tracking, health milestones and calm breathing support.</text>

  <g>
    <rect x="84" y="244" width="202" height="88" rx="26" fill="#FFFFFF" stroke="#D0E8D8"/>
    <text x="112" y="279" fill="#5F8D76" font-size="18" font-weight="600" font-family="Helvetica, Arial, sans-serif">MONEY SAVED</text>
    <text x="112" y="313" fill="#0E6D4E" font-size="30" font-weight="800" font-family="Helvetica, Arial, sans-serif">₺12.480</text>
  </g>

  <g>
    <rect x="304" y="244" width="202" height="88" rx="26" fill="#FFFFFF" stroke="#D0E8D8"/>
    <text x="332" y="279" fill="#5F8D76" font-size="18" font-weight="600" font-family="Helvetica, Arial, sans-serif">SMOKE-FREE</text>
    <text x="332" y="313" fill="#0E6D4E" font-size="30" font-weight="800" font-family="Helvetica, Arial, sans-serif">142 DAYS</text>
  </g>

  <g>
    <rect x="84" y="352" width="422" height="78" rx="24" fill="#0E6D4E"/>
    <text x="116" y="399" fill="#F7FFFA" font-size="28" font-weight="700" font-family="Helvetica, Arial, sans-serif">Break the habit. Keep the progress.</text>
  </g>
</svg>
